HIERARCHY
ROOT Model_Hips
{
	OFFSET 0.000000 96.915077 0.000000
	CHANNELS 6 Xposition Yposition Zposition Xrotation Yrotation Zrotation
	JOINT Model_Spine
	{
		OFFSET 0.000000 11.137703 -1.289900
		CHANNELS 3 Xrotation Yrotation Zrotation
		JOINT Model_Spine1
		{
			OFFSET 0.000000 12.993942 -1.504922
			CHANNELS 3 Xrotation Yrotation Zrotation
			JOINT Model_Spine2
			{
				OFFSET 0.000000 14.850220 -1.719911
				CHANNELS 3 Xrotation Yrotation Zrotation
				JOINT Model_Neck
				{
					OFFSET 0.000000 16.706543 -1.934903
					CHANNELS 3 Xrotation Yrotation Zrotation
					JOINT Model_Head
					{
						OFFSET 0.000000 10.471298 2.002100
						CHANNELS 3 Xrotation Yrotation Zrotation
						JOINT Model_HeadTop_End
						{
							OFFSET 0.000000 20.842606 3.985100
							CHANNELS 3 Xrotation Yrotation Zrotation
							End Site
							{
								OFFSET 0.000000 21.220154 0.000000
							}
						}
					}
				}
				JOINT Model_LeftShoulder
				{
					OFFSET 7.008500 14.768600 -1.919946
					CHANNELS 3 Xrotation Yrotation Zrotation
					JOINT Model_LeftArm
					{
						OFFSET 14.126271 -3.718048 0.029937
						CHANNELS 3 Xrotation Yrotation Zrotation
						JOINT Model_LeftForeArm
						{
							OFFSET 28.282801 0.000000 0.000000
							CHANNELS 3 Xrotation Yrotation Zrotation
							JOINT Model_LeftHand
							{
								OFFSET 26.204689 0.000000 0.000000
								CHANNELS 3 Xrotation Yrotation Zrotation
								End Site
								{
									OFFSET 26.204704 0.000000 0.000000
								}
							}
						}
					}
				}
				JOINT Model_RightShoulder
				{
					OFFSET -7.008500 14.768555 -1.949840
					CHANNELS 3 Xrotation Yrotation Zrotation
					JOINT Model_RightArm
					{
						OFFSET -14.126281 -3.718018 -0.029932
						CHANNELS 3 Xrotation Yrotation Zrotation
						JOINT Model_RightForeArm
						{
							OFFSET -28.283798 0.000000 -0.000001
							CHANNELS 3 Xrotation Yrotation Zrotation
							JOINT Model_RightHand
							{
								OFFSET -26.204193 0.000000 -0.000001
								CHANNELS 3 Xrotation Yrotation Zrotation
								End Site
								{
									OFFSET -26.204208 0.000000 -0.000001
								}
							}
						}
					}
				}
			}
		}
	}
	JOINT Model_LeftUpLeg
	{
		OFFSET 8.327700 -6.193199 -0.402800
		CHANNELS 3 Xrotation Yrotation Zrotation
		JOINT Model_LeftLeg
		{
			OFFSET 0.735802 -42.108742 -0.610721
			CHANNELS 3 Xrotation Yrotation Zrotation
			JOINT Model_LeftFoot
			{
				OFFSET -0.735806 -36.833748 -0.172876
				CHANNELS 3 Xrotation Yrotation Zrotation
				JOINT Model_LeftToeBase
				{
					OFFSET -0.565857 -11.977769 16.297714
					CHANNELS 3 Xrotation Yrotation Zrotation
					JOINT Model_LeftToe_End
					{
						OFFSET -0.111712 -0.312793 7.857784
						CHANNELS 3 Xrotation Yrotation Zrotation
						End Site
						{
							OFFSET -0.111712 -0.312793 7.857784
						}
					}
				}
			}
		}
	}
	JOINT Model_RightUpLeg
	{
		OFFSET -8.327700 -6.193199 -0.516500
		CHANNELS 3 Xrotation Yrotation Zrotation
		JOINT Model_RightLeg
		{
			OFFSET -0.735785 -42.108738 -0.434061
			CHANNELS 3 Xrotation Yrotation Zrotation
			JOINT Model_RightFoot
			{
				OFFSET 0.735776 -36.833748 -0.021630
				CHANNELS 3 Xrotation Yrotation Zrotation
				JOINT Model_RightToeBase
				{
					OFFSET 0.565817 -11.977745 15.903093
					CHANNELS 3 Xrotation Yrotation Zrotation
					JOINT Model_RightToe_End
					{
						OFFSET 0.111702 -0.312791 7.811342
						CHANNELS 3 Xrotation Yrotation Zrotation
						End Site
						{
							OFFSET 0.111702 -0.312791 7.811342
						}
					}
				}
			}
		}
	}
}
MOTION
Frames: 6
Frame Time: 0.016667
-4.274368 87.922188 0.160428 -5.605856 -17.686845 0.512426 16.548963 2.234125 -2.941809 2.830697 0.714209 -1.601536 2.835627 0.666743 -1.613245 -3.800926 -3.889107 1.434030 -3.800923 -3.889108 1.434033 -0.000001 -0.000002 0.000000 -0.768195 7.393071 -0.160586 11.240452 -18.851296 -55.404900 -0.000015 -73.511735 -0.000011 0.000004 -0.000000 0.000001 -2.217635 -13.391527 8.301694 -3.858481 52.404155 53.719144 -0.000084 79.478895 0.000106 -0.000001 -0.000001 -0.000002 -30.569301 13.229302 9.683022 73.720062 10.982739 8.314400 -13.586874 2.977151 2.150226 -13.814881 2.392818 -10.693773 0.000000 0.000000 0.000001 -23.392298 -10.648904 -0.882086 57.104893 -7.476112 -10.146247 -29.771060 -0.940915 5.993390 -0.028380 0.000000 0.000005 0.000000 -0.000002 0.000000 
-4.174004 88.548805 -2.354939 -5.523697 -16.421388 0.568270 16.687475 1.555940 -2.869232 2.837673 0.522541 -1.651261 2.841437 0.472491 -1.659140 -3.930711 -4.052998 1.887531 -3.930720 -4.052993 1.887533 -0.000000 0.000001 -0.000000 -0.810005 7.502696 0.146568 9.077450 -19.568125 -56.087734 -0.000003 -74.880682 0.000000 -0.000002 -0.000000 0.000002 -2.162932 -13.963584 9.610283 1.785553 51.120421 49.552053 0.000036 80.387351 0.000014 0.000001 -0.000000 -0.000000 -28.636878 13.097453 8.598617 74.080894 10.342063 7.590344 -11.827103 1.804910 1.935351 -16.230693 3.470221 -12.881668 -0.000001 -0.000001 -0.000000 -24.480964 -12.234622 -0.934631 55.301719 -6.042519 -10.166275 -26.796365 -0.723941 4.357522 -0.379866 -0.000016 0.000001 0.000000 -0.000001 0.000000 
-4.010628 89.310829 -4.931722 -5.394986 -15.245829 0.604920 16.796851 0.783952 -2.796923 2.780421 0.307806 -1.683121 2.782888 0.255619 -1.686906 -3.958385 -4.179534 2.342333 -3.958394 -4.179542 2.342337 0.000001 0.000002 -0.000000 -0.849544 7.551779 0.515711 7.199487 -20.434879 -56.707290 -0.000040 -76.369458 -0.000023 -0.000002 0.000000 -0.000000 -2.087926 -14.488846 10.807243 6.924308 49.525767 46.023372 -0.000011 81.306285 0.000022 0.000003 0.000001 -0.000002 -26.420642 13.121488 7.417155 73.583568 9.518019 7.085308 -9.856230 0.633244 1.579966 -18.086500 4.658013 -14.989559 0.000000 0.000001 -0.000000 -25.273778 -13.712617 -0.936627 52.700438 -4.549066 -10.191973 -23.340503 -0.557796 2.885948 -0.738956 -0.000005 0.000001 0.000000 -0.000003 0.000000 
-3.705349 90.285576 -7.570776 -5.128999 -14.582785 0.569843 16.782164 -0.222718 -2.733990 2.559374 0.034167 -1.624207 2.559852 -0.016821 -1.623041 -3.745882 -4.135989 2.675340 -3.745875 -4.135995 2.675345 -0.000000 0.000000 0.000000 -0.887116 7.550310 0.897733 6.050826 -21.618706 -57.135605 -0.000070 -78.031107 -0.000050 0.000003 0.000000 -0.000001 -2.047837 -14.671969 11.230558 10.565001 47.667487 44.636164 -0.000031 82.072714 0.000061 0.000001 0.000000 -0.000001 -23.808274 13.712465 6.178310 71.806086 8.499329 7.407679 -8.543778 -0.116255 0.562668 -20.834319 4.770228 -13.583666 0.000001 -0.000000 0.000000 -25.534691 -14.651265 -0.549704 48.710355 -3.147196 -10.221769 -19.183671 -0.482850 1.641387 -0.820572 0.000003 -0.000006 0.000000 -0.000001 0.000000 
-3.282567 91.235748 -10.268213 -4.365322 -14.780029 0.595473 16.300024 -1.117934 -2.715032 2.228302 -0.211923 -1.449534 2.227215 -0.255805 -1.443024 -3.518218 -3.904662 2.722365 -3.518206 -3.904659 2.722371 -0.000000 -0.000001 -0.000000 -0.935065 7.724324 0.977568 5.244022 -22.671734 -57.374777 -0.000033 -79.635771 -0.000026 0.000002 -0.000001 0.000002 -2.086459 -14.321412 10.446157 12.436934 45.670558 45.630899 0.000153 82.614826 -0.000134 -0.000000 -0.000001 -0.000000 -21.742449 15.411082 5.012183 69.300957 7.245507 8.808213 -7.326890 -0.016284 -0.336138 -23.483490 4.659710 -11.906836 -0.000002 -0.000001 0.000000 -25.978971 -15.339623 -0.055018 44.097002 -0.596220 -10.173954 -14.513829 -0.472266 0.365870 -0.884888 0.000002 -0.000002 0.000000 0.000000 0.000000 
-2.780886 92.186066 -12.992997 -3.278130 -15.303111 0.668798 15.531063 -1.831681 -2.673393 1.904636 -0.412601 -1.226016 1.903162 -0.447058 -1.214751 -3.393137 -3.630944 2.661507 -3.393130 -3.630937 2.661506 -0.000000 0.000002 -0.000000 -0.972805 7.939956 0.866484 4.473315 -23.471061 -57.524605 -0.000062 -81.284743 -0.000027 -0.000002 0.000001 0.000002 -2.135464 -13.797406 9.273957 13.729870 43.601134 47.150186 -0.000087 83.199559 0.000136 0.000003 0.000000 -0.000001 -19.965317 16.913726 3.754536 66.160163 6.853145 9.971999 -5.885895 -0.006852 -0.898471 -26.259670 4.545563 -10.711123 -0.000000 0.000000 -0.000000 -26.366157 -17.644544 -0.047756 38.880118 4.938624 -10.078948 -9.228225 -0.465093 -1.371951 -1.000717 0.000003 -0.000000 0.000000 0.000001 0.000000 
